<svg xmlns="http://www.w3.org/2000/svg" xmlns:xlink="http://www.w3.org/1999/xlink"><defs><filter id="filter0_d" x=".95" y=".95" width="56.637" height="57.5" filterUnits="userSpaceOnUse" color-interpolation-filters="sRGB"><feFlood flood-opacity="0" result="BackgroundImageFix"/><feColorMatrix in="SourceAlpha" values="0 0 0 0 0 0 0 0 0 0 0 0 0 0 0 0 0 0 127 0"/><feOffset dx="-.3" dy="-.3"/><feGaussianBlur stdDeviation="1.5"/><feColorMatrix values="0 0 0 0 1 0 0 0 0 1 0 0 0 0 1 0 0 0 0.7 0"/><feBlend in2="BackgroundImageFix" result="effect1_dropShadow"/><feBlend in="SourceGraphic" in2="effect1_dropShadow" result="shape"/></filter><filter id="filter0_d" x=".95" y=".7" width="57.499" height="56.75" filterUnits="userSpaceOnUse" color-interpolation-filters="sRGB"><feFlood flood-opacity="0" result="BackgroundImageFix"/><feColorMatrix in="SourceAlpha" values="0 0 0 0 0 0 0 0 0 0 0 0 0 0 0 0 0 0 127 0"/><feOffset dx="-.3" dy="-.3"/><feGaussianBlur stdDeviation="1.5"/><feColorMatrix values="0 0 0 0 1 0 0 0 0 1 0 0 0 0 1 0 0 0 0.7 0"/><feBlend in2="BackgroundImageFix" result="effect1_dropShadow"/><feBlend in="SourceGraphic" in2="effect1_dropShadow" result="shape"/></filter><filter id="filter0_d" x=".95" y=".95" width="57.5" height="57.5" filterUnits="userSpaceOnUse" color-interpolation-filters="sRGB"><feFlood flood-opacity="0" result="BackgroundImageFix"/><feColorMatrix in="SourceAlpha" values="0 0 0 0 0 0 0 0 0 0 0 0 0 0 0 0 0 0 127 0"/><feOffset dx="-.3" dy="-.3"/><feGaussianBlur stdDeviation="1.5"/><feColorMatrix values="0 0 0 0 1 0 0 0 0 1 0 0 0 0 1 0 0 0 0.7 0"/><feBlend in2="BackgroundImageFix" result="effect1_dropShadow"/><feBlend in="SourceGraphic" in2="effect1_dropShadow" result="shape"/></filter><filter id="filter0_d" x=".7" y=".95" width="56" height="56.75" filterUnits="userSpaceOnUse" color-interpolation-filters="sRGB"><feFlood flood-opacity="0" result="BackgroundImageFix"/><feColorMatrix in="SourceAlpha" values="0 0 0 0 0 0 0 0 0 0 0 0 0 0 0 0 0 0 127 0"/><feOffset dx="-.3" dy="-.3"/><feGaussianBlur stdDeviation="1.5"/><feColorMatrix values="0 0 0 0 1 0 0 0 0 1 0 0 0 0 1 0 0 0 0.7 0"/><feBlend in2="BackgroundImageFix" result="effect1_dropShadow"/><feBlend in="SourceGraphic" in2="effect1_dropShadow" result="shape"/></filter><filter id="filter0_d" x=".95" y=".95" width="57.502" height="57.499" filterUnits="userSpaceOnUse" color-interpolation-filters="sRGB"><feFlood flood-opacity="0" result="BackgroundImageFix"/><feColorMatrix in="SourceAlpha" values="0 0 0 0 0 0 0 0 0 0 0 0 0 0 0 0 0 0 127 0"/><feOffset dx="-.3" dy="-.3"/><feGaussianBlur stdDeviation="1.5"/><feColorMatrix values="0 0 0 0 1 0 0 0 0 1 0 0 0 0 1 0 0 0 0.7 0"/><feBlend in2="BackgroundImageFix" result="effect1_dropShadow"/><feBlend in="SourceGraphic" in2="effect1_dropShadow" result="shape"/></filter><filter id="filter0_d" x=".95" y=".95" width="63.499" height="63.499" filterUnits="userSpaceOnUse" color-interpolation-filters="sRGB"><feFlood flood-opacity="0" result="BackgroundImageFix"/><feColorMatrix in="SourceAlpha" values="0 0 0 0 0 0 0 0 0 0 0 0 0 0 0 0 0 0 127 0"/><feOffset dx="-.3" dy="-.3"/><feGaussianBlur stdDeviation="3"/><feColorMatrix values="0 0 0 0 0.992157 0 0 0 0 0.945098 0 0 0 0 0.317647 0 0 0 1 0"/><feBlend in2="BackgroundImageFix" result="effect1_dropShadow"/><feBlend in="SourceGraphic" in2="effect1_dropShadow" result="shape"/></filter></defs><symbol id="icon-jackpot"><g filter="url(#filter0_d)" stroke="#fff" stroke-width="1.5"><path clip-rule="evenodd" d="M13.884 45.792c-2.357 0-4.267 2.062-4.267 4.604v4.34c0 .146.11.264.245.264h38.236c.136 0 .245-.118.245-.264v-4.34c0-2.542-1.91-4.604-4.266-4.604H13.884z"/><path d="M45 44.796V31.144c0-8.803-6.94-15.94-15.5-15.94-8.56 0-15.5 7.137-15.5 15.94v9.82M29.98 5v7.556M5 31.506h6M7.184 18.168l5.943 3.703M16.3 8.395l3.937 6.066m19.458.097l3.937-6.066m7.735 9.676l-5.943 3.703m2.713 9.635h6" stroke-linecap="round"/><path d="M29.55 34.289a3 3 0 100-6 3 3 0 000 6zm.2-.289v11.5"/></g></symbol><symbol id="icon-lottery"><g filter="url(#filter0_d)"><path fill-rule="evenodd" clip-rule="evenodd" d="M31.898 43.994c9.89-.944 17.602-9.193 17.602-19.202C49.5 14.152 40.784 5.5 30 5.5s-19.5 8.651-19.5 19.292c0 9.682 7.216 17.716 16.639 19.086l-.463 1.447C16.658 43.748 9 35.155 9 24.792 9 13.31 18.402 4 30 4s21 9.309 21 20.792c0 10.691-8.15 19.498-18.635 20.662l-.467-1.46z" fill="#fff"/><path d="M34.25 24.792c0 2.313-1.896 4.2-4.25 4.2s-4.25-1.887-4.25-4.2 1.896-4.2 4.25-4.2 4.25 1.887 4.25 4.2zM29.75 9.94v10.891m0 7.921v6.931" stroke="#fff" stroke-width="1.5"/><path transform="matrix(-.82606 .56359 -.57124 -.82078 42.68 15.376)" stroke="#fff" stroke-width="1.5" d="M0-.75h10.965"/><path transform="matrix(-.82606 .56359 -.57124 -.82078 26.059 26.773)" stroke="#fff" stroke-width="1.5" d="M0-.75h10.965"/><path transform="matrix(.91473 .40406 .41083 -.91171 16 17.861)" stroke="#fff" stroke-width="1.5" d="M0-.75h10.982"/><path transform="matrix(.91473 .40406 .41083 -.91171 34 25.782)" stroke="#fff" stroke-width="1.5" d="M0-.75h10.982"/><path clip-rule="evenodd" d="M27 33.223a1.5 1.5 0 11-3 0 1.5 1.5 0 013 0zm15-8.911a1.5 1.5 0 11-3 0 1.5 1.5 0 013 0zm-6-7.921a1.5 1.5 0 11-3 0 1.5 1.5 0 013 0zm-14 8.911a1.5 1.5 0 11-3 0 1.5 1.5 0 013 0zm4-8.911a1.5 1.5 0 11-3 0 1.5 1.5 0 013 0zm11 16.832a1.5 1.5 0 11-3 0 1.5 1.5 0 013 0z" stroke="#fff" stroke-width="1.5"/><path d="M17.19 40.634L5.14 52.163C4.681 53.02 5.405 54 6.495 54H19.68" stroke="#fff" stroke-width="1.5" stroke-linecap="round"/><path d="M42.583 40.634L55 54H27.57" stroke="#fff" stroke-width="1.5" stroke-linecap="round" stroke-linejoin="round"/><path d="M22 47.545h15M25.502 47l4-12M33 47l-3-12" stroke="#fff" stroke-width="1.5" stroke-linecap="round"/><circle cx="30" cy="25" r="15.25" stroke="#fff" stroke-width="1.5"/></g></symbol><symbol id="icon-poker"><g filter="url(#filter0_d)"><path d="M17.209 42.255l-5.246 11.354a.98.98 0 00.89 1.391h2.75" stroke="#fff" stroke-width="1.5" stroke-linecap="round"/><path d="M42.825 42.255L48.223 55H23" stroke="#fff" stroke-width="1.5" stroke-linecap="round" stroke-linejoin="round"/><path d="M54 5H6a1 1 0 00-1 1v35a1 1 0 001 1h48a1 1 0 001-1V6a1 1 0 00-1-1z" stroke="#fff" stroke-width="1.5"/><path d="M28.077 14h5c.51 0 .923.448.923 1v17c0 .552-.413 1-.923 1H22.923c-.51 0-.923-.448-.923-1V15c0-.552.413-1 .923-1h1.385m11.852 1.808l1.747.436a1 1 0 01.73 1.203l-2.59 10.816" stroke="#fff" stroke-width="1.5" stroke-linecap="round"/><path d="M28.716 19.317c-.25-.423-.947-.422-1.197 0l-2.423 4.102a.692.692 0 000 .704l2.423 4.102a.695.695 0 001.196 0l2.424-4.1a.695.695 0 000-.707l-2.423-4.101zm-.599 7.191L26.5 23.772l1.617-2.737 1.617 2.737-1.617 2.736z" fill="#fff"/></g></symbol><symbol id="icon-slots"><g filter="url(#filter0_d)"><path d="M54 14.667c0-1.853-1.447-3.36-3.226-3.36s-3.226 1.507-3.226 3.36c0 1.561 1.032 2.867 2.42 3.242v15.244h-2.42V23.91c0-2.316-1.809-4.201-4.032-4.201H9.645c-2.223 0-4.032 1.885-4.032 4.201v24.523A2.512 2.512 0 004 50.799V55h45.161v-4.2a2.512 2.512 0 00-1.613-2.366v-5.197h1.613c1.334 0 2.42-1.13 2.42-2.52V17.909c1.388-.375 2.419-1.68 2.419-3.242zM9.645 21.39h33.871c1.334 0 2.42 1.132 2.42 2.521v24.368h-8.538l-1.613-1.68h-18.41l-1.612 1.68H7.226V23.91c0-1.39 1.085-2.52 2.42-2.52zm37.903 31.93H5.613V50.8c0-.463.361-.84.806-.84h10.012l1.613-1.68h17.074l1.613 1.68h10.01c.446 0 .807.377.807.84v2.52zm1.613-11.763h-1.613v-6.722h2.42v5.882c0 .463-.362.84-.807.84zm1.613-25.208c-.89 0-1.613-.754-1.613-1.68 0-.928.724-1.681 1.613-1.681.89 0 1.613.753 1.613 1.68 0 .927-.723 1.68-1.613 1.68z" fill="#fff"/><path d="M10 33.716h5.124l-4.139 6.949 1.53.794L17 33.927v-1.843h-7v1.632zm27-1.632v1.632h5.124l-4.139 6.949 1.53.794L44 33.927v-1.843h-7zM23.985 36.54l1.53.794L30 29.802V27.96h-7v1.632h5.124l-4.139 6.949z" fill="#fff"/><path d="M25.5 6.563L26.295 5l5.75 6.353L39.95 5l-4.671 15.078H17.312L13 5l7.905 6.353.67-.845" stroke="#fff" stroke-width="1.5" stroke-linecap="round" stroke-linejoin="round"/><path d="M28.738 14.702c0 1.025-.79 1.803-1.701 1.803-.91 0-1.701-.778-1.701-1.803s.79-1.803 1.7-1.803c.912 0 1.702.778 1.702 1.803z" stroke="#fff" stroke-width="1.5"/><path d="M32.5 24.5v19m-12-19v19" stroke="#fff" stroke-width="1.5" stroke-linecap="round"/></g></symbol><symbol id="icon-table"><g filter="url(#filter0_d)" stroke="#fff" stroke-width="1.5"><path clip-rule="evenodd" d="M30.683 10.329L6.441 17.322c-1.088.314-1.691 1.398-1.342 2.411L15.516 49.97c.346 1.007 1.502 1.558 2.577 1.23l24.247-7.407c1.072-.327 1.657-1.406 1.307-2.409L33.226 11.56c-.346-.99-1.478-1.539-2.543-1.232z"/><path d="M14.676 10.207V7.865C14.676 6.283 16.047 5 17.739 5h23.945c1.71 0 3.088 1.31 3.062 2.908l.047 26.175" stroke-linecap="round"/><path d="M48.876 17.415l4.815 1.732c1.018.367 1.549 1.418 1.204 2.387l-11.46 32.16c-.357 1-1.513 1.541-2.583 1.207a2.196 2.196 0 01-.113-.038L31 50.5" stroke-linecap="round"/><path d="M37.136 41.29c1.127 0 2.041-.855 2.041-1.91s-.914-1.91-2.041-1.91c-1.128 0-2.042.855-2.042 1.91s.914 1.91 2.042 1.91zM11.612 23.145c1.128 0 2.042-.855 2.042-1.91s-.914-1.91-2.042-1.91c-1.127 0-2.042.855-2.042 1.91s.915 1.91 2.042 1.91zm18.276 7.393a4.788 4.788 0 00-2.327-2.756l-5.503-2.873a4.83 4.83 0 01-.86-.576 4.82 4.82 0 01-.346.974c-.678 1.396-2.033 4.189-2.712 5.585a4.789 4.789 0 00-.228 3.6c.636 1.925 2.661 2.986 4.524 2.371.513-.17.96-.449 1.325-.804a4.322 4.322 0 01-.952 3.87l6.375-2.105c-1.324-.278-2.485-1.205-3.059-2.544a3.437 3.437 0 001.54-.143c1.863-.615 2.858-2.674 2.223-4.599z"/></g></symbol><symbol id="icon"><g filter="url(#filter0_d)" stroke="#FDF151" stroke-width="1.5"><path clip-rule="evenodd" d="M33 58c13.807 0 25-11.193 25-25S46.806 8 33 8 8 19.193 8 33s11.193 25 25 25z"/><path d="M31.978 26.877l.811-1.53 5.867 6.222 8.066-6.223-4.766 14.77H23.623l-4.4-14.77 8.066 6.223.684-.828" stroke-linecap="round" stroke-linejoin="round"/><path clip-rule="evenodd" d="M33 52.871c10.975 0 19.872-8.897 19.872-19.872 0-10.974-8.897-19.871-19.871-19.871-10.975 0-19.872 8.897-19.872 19.871 0 10.975 8.897 19.872 19.872 19.872z"/><path d="M58 33h-5.13m-39.742 0H8m25 19.871V58M15.5 15.5l3.846 3.846M47.46 47.46l3.5 3.5m-.07-34.68l-3.124 3.125M19.721 47L16 50.722M33 8v5.128"/><circle cx="32.5" cy="34.5" r="1.75"/></g></symbol><symbol id="logo"><path d="M33.788 66c-.632 0-1.157-.052-1.573-.156a4.372 4.372 0 01-1.69-.871 4.562 4.562 0 01-1.183-1.534 4.457 4.457 0 01-.429-1.924c0-.685.143-1.326.43-1.924a4.397 4.397 0 011.182-1.534 4.143 4.143 0 011.703-.871c.407-.104.928-.156 1.56-.156h.13v2.145h-.13c-.702 0-1.26.143-1.677.429a2.2 2.2 0 00-.715.819 2.318 2.318 0 000 2.184c.182.347.42.62.715.819.416.286.975.429 1.677.429h.13V66h-.13zm9.546-2.782c0-1.387.269-2.54.806-3.458a4.93 4.93 0 012.236-2.054c.954-.45 2.063-.676 3.328-.676V66h-2.21v-1.3h-1.95V66h-2.21v-2.782zm4.16-.663v-2.938c-1.144.45-1.785 1.43-1.924 2.938h1.924zm11.682 1.3h2.64c.26 0 .454-.052.584-.156a.545.545 0 00.026-.832 1.044 1.044 0 00-.429-.273 18.728 18.728 0 01-1.443-.52 2.239 2.239 0 01-.702-.494c-.468-.477-.702-1.096-.702-1.859 0-.676.178-1.248.533-1.716.364-.477.85-.776 1.456-.897.173-.035.373-.056.598-.065.234-.009.49-.013.767-.013h1.21v2.145h-1.665c-.225 0-.398.052-.52.156a.524.524 0 00-.169.403c0 .347.195.576.585.689.572.165 1.005.308 1.3.429.303.121.568.277.793.468.26.225.455.507.585.845.13.33.195.685.195 1.066 0 .537-.121 1.018-.364 1.443a2.577 2.577 0 01-1 .975 2.762 2.762 0 01-1.379.351h-2.899v-2.145zM74.18 57.03h2.21V66h-2.21v-8.97zm11.702 0c.876 0 1.669.134 2.38.403a5.18 5.18 0 011.845 1.144V57.03h2.21V66h-2.21v-2.782c0-1.863-.671-3.016-2.015-3.458V66h-2.21v-8.97zm20.494 9.165a4.642 4.642 0 01-2.366-.624 4.615 4.615 0 01-1.69-1.703 4.642 4.642 0 01-.624-2.366c0-.85.208-1.63.624-2.34a4.615 4.615 0 011.69-1.703 4.642 4.642 0 012.366-.624c.858 0 1.646.208 2.366.624a4.59 4.59 0 011.703 1.703c.424.71.637 1.49.637 2.34 0 .858-.213 1.647-.637 2.366a4.59 4.59 0 01-1.703 1.703 4.644 4.644 0 01-2.366.624zm.013-2.158a2.39 2.39 0 001.235-.338c.381-.225.684-.529.91-.91.225-.39.338-.81.338-1.261 0-.45-.113-.867-.338-1.248a2.625 2.625 0 00-.91-.936 2.32 2.32 0 00-1.235-.351 2.34 2.34 0 00-1.248.351 2.505 2.505 0 00-.91.923 2.55 2.55 0 00-.325 1.261c0 .45.108.871.325 1.261.225.381.528.685.91.91a2.41 2.41 0 001.248.338z" fill="#E44F5B"/><path d="M138.5 2h-29v10.5H121l-15 30h32.5V32H124l14.5-30zm-34 0h-29v10.5H87l-15 30h32.5V32H90l14.5-30zM27 2H15.5v28.5c0 1-.6 3-3 3s-3-2-3-3H0c.667 4.333 4.1 13 12.5 13 10.5 0 14.5-8 14.5-13V2z" fill="#fff"/><path d="M52.5 0C39.519 0 29 10.519 29 23.5S39.519 47 52.5 47 76 36.481 76 23.5 65.481 0 52.5 0zm1.808 1.9a21.51 21.51 0 017.42 1.997l-2.715 4.704a16.193 16.193 0 00-4.707-1.264V1.9h.002zm-3.616 0v5.437a16.25 16.25 0 00-4.707 1.264L43.27 3.897A21.53 21.53 0 0150.692 1.9zM40.135 5.7l2.728 4.721a16.373 16.373 0 00-3.44 3.44l-4.721-2.727A21.86 21.86 0 0140.135 5.7zm-7.238 8.572l4.704 2.715a16.195 16.195 0 00-1.264 4.707H30.9c.219-2.64.918-5.137 1.997-7.422zM30.9 25.308h5.437c.187 1.655.62 3.237 1.264 4.707l-4.704 2.715a21.53 21.53 0 01-1.997-7.422zM40.135 41.3a21.844 21.844 0 01-5.435-5.435l4.721-2.728a16.38 16.38 0 003.44 3.44L40.135 41.3zm10.557 3.8a21.509 21.509 0 01-7.42-1.997l2.715-4.704a16.2 16.2 0 004.707 1.264V45.1h-.002zM38.038 23.5c0-7.976 6.487-14.462 14.462-14.462S66.962 15.524 66.962 23.5 60.474 37.962 52.5 37.962 38.038 31.474 38.038 23.5zm16.27 21.6v-5.437a16.252 16.252 0 004.707-1.264l2.715 4.704a21.529 21.529 0 01-7.422 1.997zm10.557-3.8l-2.728-4.721a16.373 16.373 0 003.44-3.44l4.722 2.727a21.861 21.861 0 01-5.434 5.434zm7.238-8.572l-4.704-2.715a16.195 16.195 0 001.264-4.707H74.1a21.507 21.507 0 01-1.997 7.422zM74.1 21.692h-5.437a16.252 16.252 0 00-1.264-4.707l4.704-2.715a21.53 21.53 0 011.997 7.422zm-8.523-7.829a16.376 16.376 0 00-3.44-3.44l2.728-4.722a21.844 21.844 0 015.435 5.436l-4.723 2.726z" fill="#E44F5B"/><path d="M55.438 20.177L52.5 14.228l-2.937 5.95-6.566.954 4.75 4.633-1.12 6.54 5.873-3.087 5.873 3.087-1.12-6.54 4.75-4.633-6.565-.955zm.535 8.824L52.5 27.175 49.028 29l.661-3.867-2.809-2.74 3.881-.566 1.74-3.516 1.736 3.518 3.881.565-2.809 2.74.664 3.866z" fill="#E44F5B"/></symbol><symbol id="play"><path d="M37.872 27.504a1 1 0 010 1.758l-12.64 6.868a1 1 0 01-1.477-.879V21.515a1 1 0 011.478-.879l12.64 6.868z" fill="#fff"/><path d="M29 0C12.98 0 0 12.98 0 29s12.98 29 29 29 29-12.98 29-29S45.02 0 29 0zm2.23 2.345a26.544 26.544 0 019.158 2.465l-3.35 5.804a19.982 19.982 0 00-5.81-1.56v-6.71h.003zm-4.46 0v6.71a20.07 20.07 0 00-5.81 1.559L17.61 4.81a26.568 26.568 0 019.16-2.465zM13.741 7.034l3.366 5.827a20.2 20.2 0 00-4.245 4.245l-5.827-3.367a26.977 26.977 0 016.706-6.705zM4.81 17.612l5.804 3.35a19.985 19.985 0 00-1.56 5.81h-6.71a26.54 26.54 0 012.466-9.16zM2.345 31.23h6.71c.23 2.043.765 3.995 1.559 5.809L4.81 40.39a26.568 26.568 0 01-2.465-9.16zm11.397 19.735a26.954 26.954 0 01-6.708-6.708l5.826-3.366a20.211 20.211 0 004.246 4.245l-3.364 5.83zm13.027 4.69a26.54 26.54 0 01-9.157-2.466l3.35-5.804a19.983 19.983 0 005.81 1.56v6.71h-.003zM11.154 29c0-9.842 8.004-17.846 17.846-17.846S46.846 19.158 46.846 29 38.842 46.846 29 46.846 11.154 38.842 11.154 29zM31.23 55.655v-6.71a20.054 20.054 0 005.809-1.559l3.35 5.804a26.565 26.565 0 01-9.16 2.465zm13.027-4.689l-3.366-5.827a20.2 20.2 0 004.245-4.245l5.827 3.367a26.976 26.976 0 01-6.706 6.705zm8.932-10.578l-5.804-3.35a19.983 19.983 0 001.56-5.81h6.71a26.539 26.539 0 01-2.466 9.16zm2.465-13.619h-6.71a20.054 20.054 0 00-1.559-5.809l5.804-3.35a26.566 26.566 0 012.465 9.16zm-10.518-9.661a20.206 20.206 0 00-4.245-4.245l3.366-5.827a26.954 26.954 0 016.708 6.708l-5.829 3.364z" fill="#fff"/></symbol></svg>